<svg width="14" height="10" viewBox="0 0 14 10" fill="none" xmlns="http://www.w3.org/2000/svg">
<path d="M12.3165 0.254395H1.86918C1.25566 0.254395 0.755127 0.754379 0.755127 1.36844V8.79543C0.755127 9.40742 1.25343 9.90948 1.86918 9.90948H12.3165C12.9285 9.90948 13.4305 9.41118 13.4305 8.79543V1.36844C13.4305 0.756459 12.9322 0.254395 12.3165 0.254395ZM12.1626 0.997093L7.11644 6.04331L2.0266 0.997093H12.1626ZM1.49783 8.64164V1.51869L5.07464 5.06483L1.49783 8.64164ZM2.02299 9.16678L5.60205 5.58772L6.85615 6.83104C7.00132 6.97498 7.2356 6.97451 7.38017 6.8299L8.60298 5.6071L12.1627 9.16678H2.02299ZM12.6878 8.64162L9.12814 5.08194L12.6878 1.52223V8.64162Z" fill="#507FF9"/>
</svg>
